<svg xmlns="http://www.w3.org/2000/svg"  xmlns:xlink="http://www.w3.org/1999/xlink"  aria-hidden="true" focusable="false" aria-label="" class="Octicon-sc-9kayk9-0 dMptWj" viewBox="0 0 16 16" width="16" height="16" fill="currentColor" style="display: inline-block; user-select: none; vertical-align: text-bottom; overflow: visible;"><path d="M8 0a8 8 0 1 1 0 16A8 8 0 0 1 8 0ZM1.5 8a6.5 6.5 0 1 0 13 0 6.5 6.5 0 0 0-13 0Zm9.78-2.22-5.5 5.5a.749.749 0 0 1-1.275-.326.749.749 0 0 1 .215-.734l5.5-5.5a.751.751 0 0 1 1.042.018.751.751 0 0 1 .018 1.042Z"></path></svg>